<?xml version="1.0" encoding="UTF-8"?>
<svg version="1.1" xmlns="http://www.w3.org/2000/svg" width="1080" height="1080">
<path d="M0 0 C1.04723063 0.0912652 1.04723063 0.0912652 2.11561744 0.18437414 C9.03476654 1.09054772 12.82454564 5.05006199 17.14392281 10.25743294 C20.80475432 14.55000086 24.7482011 18.49221498 28.76892281 22.44493294 C29.65579781 23.35243294 30.54267281 24.25993294 31.45642281 25.19493294 C33.69832305 27.46593346 33.69832305 27.46593346 36.14392281 29.25743294 C39.15779063 31.76898945 41.53108128 34.5790495 44.06970406 37.55821419 C46.09998651 39.81252781 48.38510993 41.57653906 50.76892281 43.44493294 C52.12279216 45.09496122 53.45570423 46.76237164 54.76892281 48.44493294 C56.41436061 50.13256145 58.08180857 51.79896783 59.76892281 53.44493294 C61.00642281 54.71337044 61.00642281 54.71337044 62.26892281 56.00743294 C64.66283249 58.43949541 64.66283249 58.43949541 67.14392281 60.25743294 C69.46824864 62.19437113 71.25361496 64.09056615 73.20642281 66.38243294 C75.31580306 68.85628494 77.25267123 70.84805663 79.76892281 72.94493294 C82.925319 75.5752631 85.39708876 78.42014554 88.05017281 81.53868294 C89.87612809 83.65445578 89.87612809 83.65445578 92.76892281 85.94493294 C95.925319 88.5752631 98.39708876 91.42014554 101.05017281 94.53868294 C102.87612809 96.65445578 102.87612809 96.65445578 105.76892281 98.94493294 C108.93143331 101.58035835 111.45438303 104.4185283 114.12048531 107.53868294 C116.22129862 109.96805947 118.47031188 112.20238569 120.76892281 114.44493294 C122.10362016 115.77690085 123.436835 117.11035524 124.76892281 118.44493294 C125.45728218 119.13200325 126.14564156 119.81907356 126.85486031 120.52696419 C128.37743459 122.05264577 129.88782923 123.59047999 131.39392281 125.13243294 C133.77901003 127.52765351 133.77901003 127.52765351 136.64392281 129.75743294 C139.84544302 132.35969424 142.38364939 135.40434839 145.05017281 138.53868294 C146.87612809 140.65445578 146.87612809 140.65445578 149.76892281 142.94493294 C153.54876454 146.09480105 156.61425464 149.68359781 159.76892281 153.44493294 C163.21766342 151.90169397 164.94117903 150.12457087 167.28454781 147.15196419 C168.97313209 145.21009226 170.8065505 143.60852299 172.76892281 141.94493294 C175.22563569 139.85489362 177.18717521 137.94303005 179.26892281 135.44493294 C181.90434822 132.28242244 184.74251817 129.75947272 187.86267281 127.09337044 C190.29204934 124.99255712 192.52637556 122.74354386 194.76892281 120.44493294 C196.10089072 119.11023558 197.43434511 117.77702075 198.76892281 116.44493294 C199.45599312 115.75657356 200.14306343 115.06821419 200.85095406 114.35899544 C202.37663564 112.83642115 203.91446986 111.32602651 205.45642281 109.81993294 C207.85164337 107.43484571 207.85164337 107.43484571 210.08142281 104.56993294 C212.68368411 101.36841272 215.72833826 98.83020636 218.86267281 96.16368294 C220.97844565 94.33772765 220.97844565 94.33772765 223.26892281 91.44493294 C225.89925296 88.28853675 228.74413541 85.81676699 231.86267281 83.16368294 C233.97844565 81.33772765 233.97844565 81.33772765 236.26892281 78.44493294 C238.89925296 75.28853675 241.74413541 72.81676699 244.86267281 70.16368294 C246.97844565 68.33772765 246.97844565 68.33772765 249.26892281 65.44493294 C251.89925296 62.28853675 254.74413541 59.81676699 257.86267281 57.16368294 C259.97844565 55.33772765 259.97844565 55.33772765 262.26892281 52.44493294 C264.89925296 49.28853675 267.74413541 46.81676699 270.86267281 44.16368294 C272.97844565 42.33772765 272.97844565 42.33772765 275.26892281 39.44493294 C277.89925296 36.28853675 280.74413541 33.81676699 283.86267281 31.16368294 C285.97844565 29.33772765 285.97844565 29.33772765 288.26892281 26.44493294 C290.89925296 23.28853675 293.74413541 20.81676699 296.86267281 18.16368294 C298.97844565 16.33772765 298.97844565 16.33772765 301.26892281 13.44493294 C303.94005266 10.23957711 306.82710049 7.65366928 309.99939156 4.96055794 C311.85237188 3.41285661 311.85237188 3.41285661 313.76892281 1.44493294 C327.63124413 -1.40440654 345.71060555 -2.99463062 358.1324269 4.78778084 C366.89706228 10.98952095 374.36479938 18.80649103 381.79594231 26.50441504 C385.41906732 30.21468755 389.1513705 33.81255709 392.86970711 37.42694283 C400.11014116 44.4995573 407.24545608 51.66966566 414.34676842 58.8816845 C420.12616551 64.74737382 425.94216642 70.5743415 431.78540611 76.37641716 C432.62119195 77.20638014 433.45697779 78.03634313 434.31809048 78.89145651 C436.01683934 80.57805417 437.71567237 82.26456706 439.41458859 83.95099615 C455.29195192 99.72034107 471.05135596 115.60344325 486.77199818 131.52881967 C500.2252724 145.15184961 513.77507765 158.67215588 527.40075874 172.12266731 C543.2743594 187.79229044 559.08369038 203.52251305 574.79741013 219.35258472 C576.4773405 221.04461825 578.15734966 222.73657354 579.83743858 224.42844963 C580.66375446 225.26062798 581.49007034 226.09280633 582.3414261 226.9502022 C588.13177076 232.77317591 593.96465119 238.55125964 599.81603813 244.31282616 C606.95988011 251.34938656 614.03062566 258.45106907 621.01987104 265.64132734 C624.58004959 269.30052186 628.16231828 272.92440845 631.83558655 276.47037506 C645.918144 290.10890526 657.82464286 302.87481662 658.17035103 323.44493294 C657.82464286 344.01504926 645.918144 356.78096062 631.83558655 370.41949081 C631.13395842 371.09680315 630.43233029 371.77411549 629.70944071 372.47195244 C625.99916819 376.09507745 622.40129866 379.82738063 618.78691292 383.54571724 C611.71429845 390.78615129 604.54419009 397.92146621 597.33217125 405.02277856 C591.46648193 410.80217564 585.63951425 416.61817655 579.83743858 422.46141624 C578.59249411 423.715095 578.59249411 423.715095 577.32239924 424.99410061 C575.63580157 426.69284947 573.94928868 428.3916825 572.2628596 430.09059872 C556.49351468 445.96796205 540.61041249 461.7273661 524.68503608 477.44800831 C511.06200613 490.90128253 497.54169986 504.45108778 484.09118843 518.07676888 C468.4215653 533.95036953 452.69134269 549.75970052 436.86127102 565.47342026 C435.1692375 567.15335063 433.4772822 568.83335979 431.78540611 570.51344872 C430.53713859 571.75292253 430.53713859 571.75292253 429.26365354 573.01743623 C423.44067983 578.80778089 417.66259611 584.64066133 411.90102959 590.49204826 C404.86446918 597.63589024 397.76278668 604.7066358 390.57252841 611.69588117 C386.91333389 615.25605972 383.28944729 618.83832841 379.74348068 622.51159668 C366.30595581 636.38940234 354.61109923 647.60683705 334.40680715 648.04294111 C320.87616932 647.90665366 309.21380389 645.75558542 299.39483833 635.79881477 C298.09525453 634.36487939 296.79764687 632.92915099 295.50183296 631.49180794 C294.00690267 629.98611144 292.50346129 628.48882662 290.99246407 626.99925423 C286.97962694 622.99715764 283.09356239 618.89067805 279.22273111 614.75171089 C275.13426737 610.42276913 270.93500501 606.20389139 266.74728584 601.97130013 C258.86386951 593.97059979 251.08219162 585.87831236 243.33404481 577.74677849 C234.49620821 568.48153307 225.5478594 559.32626792 216.58946729 550.17777443 C198.19209421 531.38509538 179.93488801 512.46120756 161.76892281 493.44493294 C158.79117354 494.8739003 156.6978019 496.27057611 154.36487007 498.62193489 C153.72062584 499.26633018 153.07638161 499.91072548 152.41261482 500.5746479 C151.72711052 501.27047478 151.04160622 501.96630165 150.33532906 502.68321419 C149.62037773 503.40099541 148.90542641 504.11877663 148.16880989 504.85830879 C145.88493943 507.15336073 143.60810848 509.4552557 141.33142281 511.75743294 C139.80258796 513.29630355 138.27329607 514.83472024 136.74353218 516.37266731 C133.92696338 519.20555336 131.11306127 522.04102995 128.30237007 524.87974739 C125.46641384 527.74345225 122.62170931 530.59799831 119.76892281 533.44493294 C119.16048531 534.05337044 118.55204781 534.66180794 117.92517281 535.28868294 C95.76892281 557.44493294 95.76892281 557.44493294 94.04626656 559.13243294 C91.4848474 561.65578429 89.03683709 564.09923709 86.83142281 566.94493294 C84.3727025 569.92519998 81.57708653 572.25561682 78.64392281 574.75743294 C76.63494363 576.47359094 76.63494363 576.47359094 74.76892281 578.94493294 C72.38118223 581.92960866 69.63978935 584.19599878 66.73376656 586.66368294 C64.92085315 588.30719887 63.41348495 589.97058027 61.89392281 591.88243294 C61.19267281 592.72805794 60.49142281 593.57368294 59.76892281 594.44493294 C59.10892281 594.44493294 58.44892281 594.44493294 57.76892281 594.44493294 C57.76892281 595.10493294 57.76892281 595.76493294 57.76892281 596.44493294 C55.78631855 598.13225571 53.7856886 599.79859351 51.76892281 601.44493294 C51.43892281 602.10493294 51.10892281 602.76493294 50.76892281 603.44493294 C50.10892281 603.44493294 49.44892281 603.44493294 48.76892281 603.44493294 C48.76892281 604.10493294 48.76892281 604.76493294 48.76892281 605.44493294 C48.10892281 605.44493294 47.44892281 605.44493294 46.76892281 605.44493294 C46.76892281 606.10493294 46.76892281 606.76493294 46.76892281 607.44493294 C46.10892281 607.44493294 45.44892281 607.44493294 44.76892281 607.44493294 C44.76892281 608.10493294 44.76892281 608.76493294 44.76892281 609.44493294 C43.11507047 610.79412826 41.44722081 612.12627022 39.76892281 613.44493294 C39.10892281 614.43493294 38.44892281 615.42493294 37.76892281 616.44493294 C37.10892281 616.44493294 36.44892281 616.44493294 35.76892281 616.44493294 C35.76892281 617.10493294 35.76892281 617.76493294 35.76892281 618.44493294 C35.10892281 618.44493294 34.44892281 618.44493294 33.76892281 618.44493294 C33.76892281 619.10493294 33.76892281 619.76493294 33.76892281 620.44493294 C32.05407906 622.10118294 32.05407906 622.10118294 29.83142281 623.94493294 C26.84847102 626.33420293 26.84847102 626.33420293 24.76892281 629.44493294 C24.10892281 629.44493294 23.44892281 629.44493294 22.76892281 629.44493294 C22.76892281 630.10493294 22.76892281 630.76493294 22.76892281 631.44493294 C22.10892281 631.44493294 21.44892281 631.44493294 20.76892281 631.44493294 C20.76892281 632.10493294 20.76892281 632.76493294 20.76892281 633.44493294 C18.78631855 635.13225571 16.7856886 636.79859351 14.76892281 638.44493294 C14.43892281 639.10493294 14.10892281 639.76493294 13.76892281 640.44493294 C13.10892281 640.44493294 12.44892281 640.44493294 11.76892281 640.44493294 C11.76892281 641.10493294 11.76892281 641.76493294 11.76892281 642.44493294 C11.10892281 642.44493294 10.44892281 642.44493294 9.76892281 642.44493294 C9.76892281 643.10493294 9.76892281 643.76493294 9.76892281 644.44493294 C-0.60832181 649.63355525 -19.3801343 648.36860106 -30.23107719 645.44493294 C-42.17392247 640.42788619 -51.44397664 629.51600143 -60.25809669 620.38545084 C-63.8812217 616.67517833 -67.61352489 613.07730879 -71.3318615 609.46292305 C-78.57229555 602.39030858 -85.70761047 595.22020022 -92.80892281 588.00818138 C-98.58831989 582.14249206 -104.40432081 576.31552438 -110.2475605 570.51344872 C-111.08334634 569.68348573 -111.91913218 568.85352275 -112.78024486 567.99840937 C-114.47899373 566.31181171 -116.17782676 564.62529882 -117.87674297 562.93886973 C-133.75410631 547.16952481 -149.51351035 531.28642262 -165.23415257 515.36104621 C-178.68742679 501.73801627 -192.23723204 488.21770999 -205.86291313 474.76719856 C-221.73651379 459.09757543 -237.54584477 443.36735283 -253.25956452 427.53728116 C-254.93949488 425.84524763 -256.61950405 424.15329234 -258.29959297 422.46141624 C-259.53906679 421.21314872 -259.53906679 421.21314872 -260.80358049 419.93966367 C-266.59392515 414.11668997 -272.42680558 408.33860624 -278.27819252 402.57703972 C-285.4220345 395.54047932 -292.49278005 388.43879681 -299.48202543 381.24853854 C-303.04220398 377.58934402 -306.62447267 373.96545743 -310.29774094 370.41949081 C-324.38029839 356.78096062 -336.28679725 344.01504926 -336.63250542 323.44493294 C-336.28679725 302.87481662 -324.38029839 290.10890526 -310.29774094 276.47037506 C-309.59611281 275.79306273 -308.89448468 275.11575039 -308.1715951 274.41791344 C-304.46132258 270.79478843 -300.86345304 267.06248524 -297.24906731 263.34414864 C-290.17645283 256.10371458 -283.00634447 248.96839966 -275.79432563 241.86708732 C-269.92863632 236.08769024 -264.10166863 230.27168933 -258.29959297 224.42844963 C-257.46962999 223.59266379 -256.639667 222.75687795 -255.78455362 221.89576527 C-254.09795596 220.19701641 -252.41144307 218.49818337 -250.72501399 216.79926716 C-234.95566906 200.92190382 -219.07256688 185.16249978 -203.14719047 169.44185756 C-189.52416052 155.98858334 -176.00385425 142.4387781 -162.55334282 128.813097 C-146.88371969 112.93949634 -131.15349708 97.13016536 -115.32342541 81.41644561 C-113.63139188 79.73651525 -111.93943659 78.05650608 -110.2475605 76.37641716 C-109.41538215 75.55010128 -108.5832038 74.7237854 -107.72580793 73.87242965 C-101.90283422 68.08208498 -96.12475049 62.24920455 -90.36318398 56.39781761 C-83.32662357 49.25397563 -76.22494107 42.18323008 -69.0346828 35.1939847 C-65.37548827 31.63380615 -61.75160168 28.05153747 -58.20563507 24.3782692 C-40.08891681 5.664998 -26.61458233 -2.45931265 0 0 Z M-13.05446345 59.14412069 C-13.85909083 59.94912779 -14.66371821 60.75413489 -15.49272823 61.58353615 C-16.41781911 62.50663598 -17.34290999 63.4297358 -18.29603392 64.38080835 C-19.33465249 65.42228057 -20.37322501 66.46379871 -21.41175652 67.50535774 C-22.50547797 68.59864366 -23.59941892 69.69171004 -24.69356197 70.78457403 C-27.71497692 73.80374045 -30.73324397 76.82603721 -33.75103509 79.84882522 C-37.00009998 83.10218932 -40.25203432 86.35268289 -43.50362968 89.60351753 C-49.14196569 95.24132796 -54.77846089 100.88097343 -60.41372681 106.52185249 C-68.56148253 114.67771873 -76.71198249 122.83083793 -84.86316525 130.98327893 C-98.08630961 144.20861452 -111.30721705 157.43618395 -124.52673149 170.66514778 C-137.3719174 183.51950598 -150.21814818 196.37281849 -163.06579399 209.22471809 C-163.8570851 210.01627192 -164.6483762 210.80782575 -165.46364582 211.62336606 C-169.43313689 215.59416212 -173.4026486 219.56493754 -177.37217057 223.53570271 C-210.32834037 256.50224732 -243.28088578 289.47241297 -276.23107719 322.44493294 C-274.71153148 326.01992056 -272.61431405 328.31039564 -269.87761307 331.04449272 C-268.49744037 332.43063857 -268.49744037 332.43063857 -267.08938539 333.84478736 C-266.06170293 334.86676375 -265.03392817 335.88864732 -264.00607109 336.91044807 C-262.91909513 337.99829595 -261.83255868 339.08658313 -260.74642527 340.17527223 C-257.7568161 343.16936157 -254.76099273 346.15716537 -251.76413965 349.14400172 C-248.53490211 352.36461673 -245.31143158 355.5909946 -242.08726311 358.81668282 C-236.49913775 364.40585778 -230.90735697 369.99135401 -225.31308937 375.57438087 C-217.22468519 383.64654332 -209.14179757 391.72421102 -201.06025346 399.80324081 C-187.94890226 412.91021281 -174.83308929 426.01271061 -161.71447563 439.11241341 C-148.96962236 451.83891367 -136.22686761 464.56750908 -123.48693657 477.29893684 C-122.70188218 478.08346579 -121.91682779 478.86799473 -121.10798387 479.67629728 C-117.16968003 483.61199108 -113.23141748 487.54772621 -109.29317546 491.48348188 C-76.61220987 524.14370801 -43.92400498 556.79668128 -11.23107719 589.44493294 C-6.82402709 585.74828052 -2.58666366 581.94551298 1.47007942 577.86403084 C1.9987551 577.33620959 2.52743077 576.80838834 3.07212692 576.2645725 C4.82166244 574.51666825 6.56762827 572.76524358 8.31360054 571.01378059 C9.5754858 569.75161293 10.83759196 568.48966608 12.0999012 567.22792244 C15.51071111 563.81739842 18.91843773 560.40380884 22.3256042 556.98964548 C25.89256491 553.41641644 29.46237414 549.84603546 33.03187752 546.27534676 C39.78393643 539.52018477 46.53344303 532.76247861 53.28202826 526.00384653 C60.96809223 518.30658959 68.65700956 510.61218562 76.34616363 502.91801572 C92.15691894 487.09681921 107.96410146 471.27205712 123.76892281 455.44493294 C119.18172371 449.8216946 114.15084513 444.8721553 108.85189629 439.92011452 C106.20273563 437.44340668 103.56576526 434.95376632 100.9277668 432.46518135 C100.36722957 431.93681108 99.80669234 431.40844082 99.22916913 430.86405933 C91.35928654 423.43602014 83.58850427 415.90450294 75.8140831 408.37682438 C69.50049395 402.26932976 63.15608674 396.20162347 56.7274189 390.21519661 C51.09256176 384.96769633 45.53142559 379.65308381 40.04239404 374.25309664 C37.14557677 371.40799742 34.22700359 368.60420005 31.21629906 365.87948608 C19.5448135 355.2774092 10.9310051 346.2708417 10.0417012 329.89544517 C9.89030556 324.02629694 10.03535408 318.16310228 10.47287178 312.30871773 C10.52021894 311.58795512 10.5675661 310.86719251 10.61634803 310.12458861 C11.17130867 304.96941738 12.95621194 302.80767814 16.76892281 299.44493294 C16.76892281 298.78493294 16.76892281 298.12493294 16.76892281 297.44493294 C18.08892281 296.78493294 19.40892281 296.12493294 20.76892281 295.44493294 C20.76892281 294.78493294 20.76892281 294.12493294 20.76892281 293.44493294 C21.32579781 293.21805794 21.88267281 292.99118294 22.45642281 292.75743294 C25.43051868 291.06943258 27.48901146 288.97816777 29.76892281 286.44493294 C29.76892281 285.78493294 29.76892281 285.12493294 29.76892281 284.44493294 C31.08892281 283.78493294 32.40892281 283.12493294 33.76892281 282.44493294 C33.76892281 281.78493294 33.76892281 281.12493294 33.76892281 280.44493294 C34.32579781 280.21805794 34.88267281 279.99118294 35.45642281 279.75743294 C38.43051868 278.06943258 40.48901146 275.97816777 42.76892281 273.44493294 C42.76892281 272.78493294 42.76892281 272.12493294 42.76892281 271.44493294 C44.08892281 270.78493294 45.40892281 270.12493294 46.76892281 269.44493294 C46.76892281 268.78493294 46.76892281 268.12493294 46.76892281 267.44493294 C47.32579781 267.21805794 47.88267281 266.99118294 48.45642281 266.75743294 C51.43051868 265.06943258 53.48901146 262.97816777 55.76892281 260.44493294 C55.76892281 259.78493294 55.76892281 259.12493294 55.76892281 258.44493294 C56.33095406 258.20774544 56.89298531 257.97055794 57.47204781 257.72618294 C60.28786322 256.15545597 62.24847697 254.23021829 64.51892281 251.94493294 C65.31814156 251.15087044 66.11736031 250.35680794 66.94079781 249.53868294 C68.9881589 247.65709832 68.9881589 247.65709832 68.76892281 245.44493294 C69.32579781 245.21805794 69.88267281 244.99118294 70.45642281 244.75743294 C73.43051868 243.06943258 75.48901146 240.97816777 77.76892281 238.44493294 C77.76892281 237.78493294 77.76892281 237.12493294 77.76892281 236.44493294 C79.08892281 235.78493294 80.40892281 235.12493294 81.76892281 234.44493294 C81.76892281 233.78493294 81.76892281 233.12493294 81.76892281 232.44493294 C82.32579781 232.21805794 82.88267281 231.99118294 83.45642281 231.75743294 C86.43051868 230.06943258 88.48901146 227.97816777 90.76892281 225.44493294 C90.76892281 224.78493294 90.76892281 224.12493294 90.76892281 223.44493294 C92.08892281 222.78493294 93.40892281 222.12493294 94.76892281 221.44493294 C94.76892281 220.78493294 94.76892281 220.12493294 94.76892281 219.44493294 C95.32579781 219.21805794 95.88267281 218.99118294 96.45642281 218.75743294 C99.43051868 217.06943258 101.48901146 214.97816777 103.76892281 212.44493294 C103.76892281 211.78493294 103.76892281 211.12493294 103.76892281 210.44493294 C105.08892281 209.78493294 106.40892281 209.12493294 107.76892281 208.44493294 C107.76892281 207.78493294 107.76892281 207.12493294 107.76892281 206.44493294 C108.32579781 206.21805794 108.88267281 205.99118294 109.45642281 205.75743294 C112.43051868 204.06943258 114.48901146 201.97816777 116.76892281 199.44493294 C116.76892281 198.78493294 116.76892281 198.12493294 116.76892281 197.44493294 C117.36704781 197.19743294 117.96517281 196.94993294 118.58142281 196.69493294 C121.06374367 195.27646387 122.13220316 193.75228556 123.76892281 191.44493294 C106.31779075 173.97047648 88.86382333 156.49885655 71.4064436 139.03064156 C63.30138477 130.92041879 55.19726867 122.80925814 47.09533882 114.6959095 C40.03656539 107.6271922 32.97605647 100.56021389 25.91342729 93.49534893 C22.17129838 89.75191241 18.43006519 86.00759017 14.69090652 82.2611866 C11.17602527 78.73954982 7.65883952 75.22023173 4.13982391 71.70272636 C2.84448202 70.40710793 1.55000557 69.1106236 0.25643349 67.81323814 C-1.50131794 66.05055677 -3.26207435 64.2909349 -5.02366447 62.53209114 C-5.5421387 62.01070407 -6.06061293 61.489317 -6.59479851 60.95213032 C-9.61161518 57.19797019 -9.61161518 57.19797019 -13.05446345 59.14412069 Z M328.13264412 60.95213032 C327.35493277 61.73421093 327.35493277 61.73421093 326.56151009 62.53209114 C326.01345964 63.07928716 325.4654092 63.62648317 324.90075117 64.19026089 C323.04964934 66.0397047 321.2021637 67.89272019 319.35461617 69.74571419 C318.03450308 71.0661091 316.71417023 72.38628434 315.39363289 73.70625496 C311.79652229 77.30307741 308.20251376 80.9029854 304.60903049 84.50343132 C300.85783682 88.26085572 297.1038308 92.01546811 293.35011482 95.77037239 C286.23661888 102.88698248 279.12567694 110.00613893 272.01563603 117.12620068 C263.92341389 125.22958137 255.82836849 133.33013915 247.73307788 141.43045425 C231.07520327 158.09879514 214.42089944 174.77070002 197.76892281 191.44493294 C199.38487113 193.48613082 201.05456101 195.48566231 202.76892281 197.44493294 C203.42892281 197.44493294 204.08892281 197.44493294 204.76892281 197.44493294 C204.99579781 198.00180794 205.22267281 198.55868294 205.45642281 199.13243294 C207.14442317 202.10652881 209.23568797 204.16502159 211.76892281 206.44493294 C212.42892281 206.44493294 213.08892281 206.44493294 213.76892281 206.44493294 C214.09892281 207.43493294 214.42892281 208.42493294 214.76892281 209.44493294 C216.38995249 211.15601982 218.06395744 212.817466 219.76892281 214.44493294 C220.65579781 215.37305794 221.54267281 216.30118294 222.45642281 217.25743294 C224.4805443 219.67399956 224.4805443 219.67399956 226.76892281 219.44493294 C227.42892281 220.76493294 228.08892281 222.08493294 228.76892281 223.44493294 C229.42892281 223.44493294 230.08892281 223.44493294 230.76892281 223.44493294 C231.15564156 224.34018684 231.15564156 224.34018684 231.55017281 225.25352669 C232.86950703 227.6257911 234.15641601 228.82906419 236.26892281 230.50743294 C238.70557192 232.4536548 239.99154402 233.77886476 241.76892281 236.44493294 C242.42892281 236.44493294 243.08892281 236.44493294 243.76892281 236.44493294 C244.03704781 237.04305794 244.30517281 237.64118294 244.58142281 238.25743294 C245.76809687 240.44341147 246.86491393 241.85825888 248.76892281 243.44493294 C249.42892281 243.44493294 250.08892281 243.44493294 250.76892281 243.44493294 C251.09892281 244.43493294 251.42892281 245.42493294 251.76892281 246.44493294 C252.42892281 246.44493294 253.08892281 246.44493294 253.76892281 246.44493294 C254.02673531 247.02758919 254.28454781 247.61024544 254.55017281 248.21055794 C255.86726297 250.62522324 257.31980665 252.26233471 259.26892281 254.19493294 C260.18157906 255.11532356 260.18157906 255.11532356 261.11267281 256.05430794 C262.66376558 257.65927381 262.66376558 257.65927381 264.76892281 257.44493294 C265.07829781 258.24930794 265.07829781 258.24930794 265.39392281 259.06993294 C267.30142707 262.36471302 269.81711665 265.03856922 272.76892281 267.44493294 C273.42892281 267.44493294 274.08892281 267.44493294 274.76892281 267.44493294 C275.09892281 268.43493294 275.42892281 269.42493294 275.76892281 270.44493294 C276.42892281 270.44493294 277.08892281 270.44493294 277.76892281 270.44493294 C278.00611031 271.00664192 278.24329781 271.56835091 278.48767281 272.14708138 C280.06211638 274.97075952 281.98576825 276.92108136 284.26892281 279.21055794 C285.15579781 280.10001106 286.04267281 280.98946419 286.95642281 281.90587044 C287.88454781 282.82626106 288.81267281 283.74665169 289.76892281 284.69493294 C290.69704781 285.63079231 291.62517281 286.56665169 292.58142281 287.53087044 C293.46829781 288.41516731 294.35517281 289.29946419 295.26892281 290.21055794 C296.08361031 291.02298958 296.89829781 291.83542122 297.73767281 292.672472 C299.57077274 294.66409233 299.57077274 294.66409233 301.76892281 294.44493294 C302.07829781 295.24930794 302.07829781 295.24930794 302.39392281 296.06993294 C303.74029521 298.39548528 304.80276684 299.35148921 306.81604195 301.04380989 C309.29778531 303.49811985 310.20631 305.07645204 310.46594429 308.56675911 C310.47170006 310.12400168 310.44478542 311.68161189 310.39001656 313.23790169 C310.38083954 314.47966919 310.38083954 314.47966919 310.37147713 315.7465229 C310.344658 318.37642558 310.2755651 321.00333918 310.20642281 323.63243294 C310.18488448 325.41039752 310.16597724 327.18839604 310.14978218 328.96641731 C309.98373781 341.80048794 309.98373781 341.80048794 308.76892281 345.44493294 C307.43558947 346.1115996 306.10225614 346.77826627 304.76892281 347.44493294 C302.01850614 349.86160065 302.01850614 349.86160065 299.76892281 352.44493294 C299.76892281 353.10493294 299.76892281 353.76493294 299.76892281 354.44493294 C298.44892281 355.10493294 297.12892281 355.76493294 295.76892281 356.44493294 C295.76892281 357.10493294 295.76892281 357.76493294 295.76892281 358.44493294 C294.93361031 358.78524544 294.93361031 358.78524544 294.08142281 359.13243294 C291.10732693 360.8204333 289.04883416 362.9116981 286.76892281 365.44493294 C286.76892281 366.10493294 286.76892281 366.76493294 286.76892281 367.44493294 C285.44892281 368.10493294 284.12892281 368.76493294 282.76892281 369.44493294 C282.76892281 370.10493294 282.76892281 370.76493294 282.76892281 371.44493294 C281.80986031 371.84712044 281.80986031 371.84712044 280.83142281 372.25743294 C278.43760594 373.33161046 278.43760594 373.33161046 277.76892281 376.44493294 C275.70642281 377.63243294 275.70642281 377.63243294 273.76892281 378.44493294 C273.76892281 379.10493294 273.76892281 379.76493294 273.76892281 380.44493294 C272.44892281 381.10493294 271.12892281 381.76493294 269.76892281 382.44493294 C269.76892281 383.10493294 269.76892281 383.76493294 269.76892281 384.44493294 C268.80986031 384.84712044 268.80986031 384.84712044 267.83142281 385.25743294 C265.43760594 386.33161046 265.43760594 386.33161046 264.76892281 389.44493294 C262.70642281 390.63243294 262.70642281 390.63243294 260.76892281 391.44493294 C260.76892281 392.10493294 260.76892281 392.76493294 260.76892281 393.44493294 C259.44892281 394.10493294 258.12892281 394.76493294 256.76892281 395.44493294 C256.76892281 396.10493294 256.76892281 396.76493294 256.76892281 397.44493294 C255.80986031 397.84712044 255.80986031 397.84712044 254.83142281 398.25743294 C252.43760594 399.33161046 252.43760594 399.33161046 251.76892281 402.44493294 C249.70642281 403.63243294 249.70642281 403.63243294 247.76892281 404.44493294 C247.76892281 405.10493294 247.76892281 405.76493294 247.76892281 406.44493294 C247.21204781 406.67180794 246.65517281 406.89868294 246.08142281 407.13243294 C243.10732693 408.8204333 241.04883416 410.9116981 238.76892281 413.44493294 C238.76892281 414.10493294 238.76892281 414.76493294 238.76892281 415.44493294 C237.44892281 416.10493294 236.12892281 416.76493294 234.76892281 417.44493294 C234.76892281 418.10493294 234.76892281 418.76493294 234.76892281 419.44493294 C234.21204781 419.67180794 233.65517281 419.89868294 233.08142281 420.13243294 C230.10732693 421.8204333 228.04883416 423.9116981 225.76892281 426.44493294 C225.76892281 427.10493294 225.76892281 427.76493294 225.76892281 428.44493294 C224.44892281 429.10493294 223.12892281 429.76493294 221.76892281 430.44493294 C221.76892281 431.10493294 221.76892281 431.76493294 221.76892281 432.44493294 C221.12954781 432.71305794 220.49017281 432.98118294 219.83142281 433.25743294 C217.43760594 434.33161046 217.43760594 434.33161046 216.76892281 437.44493294 C214.70642281 438.63243294 214.70642281 438.63243294 212.76892281 439.44493294 C212.76892281 440.10493294 212.76892281 440.76493294 212.76892281 441.44493294 C211.44892281 442.10493294 210.12892281 442.76493294 208.76892281 443.44493294 C208.76892281 444.10493294 208.76892281 444.76493294 208.76892281 445.44493294 C207.80986031 445.84712044 207.80986031 445.84712044 206.83142281 446.25743294 C204.43760594 447.33161046 204.43760594 447.33161046 203.76892281 450.44493294 C201.70642281 451.63243294 201.70642281 451.63243294 199.76892281 452.44493294 C199.76892281 453.10493294 199.76892281 453.76493294 199.76892281 454.44493294 C199.10892281 454.77493294 198.44892281 455.10493294 197.76892281 455.44493294 C264.09892281 521.77493294 264.09892281 521.77493294 331.76892281 589.44493294 C335.92747764 585.88045736 339.8380785 582.50068322 343.67515659 578.66174698 C344.59129339 577.74760123 345.50743018 576.83345549 346.45132869 575.89160836 C347.44871294 574.89137198 348.44605039 573.89108896 349.44334602 572.89076424 C350.51749753 571.81704931 351.59186897 570.74355436 352.66644007 569.67025936 C355.60587933 566.73304808 358.54220491 563.79274148 361.4780165 560.85190487 C364.64925083 557.6763418 367.82338523 554.50367978 370.99716377 551.33065987 C376.49133765 545.83700969 381.98368135 540.34153527 387.47477722 534.84480858 C395.41392976 526.89752019 403.35585053 518.95300291 411.2984441 511.00915371 C424.18549945 498.11991112 437.07032123 485.22843813 449.95373726 472.33555794 C462.46688677 459.81322584 474.98108879 447.29194712 487.49670601 434.77208138 C488.2684988 434.00002586 489.04029159 433.22797035 489.83547204 432.43251921 C493.70743484 428.55925135 497.57941832 424.68600417 501.45141208 420.81276727 C533.56045615 388.69336079 565.66587499 356.57033254 597.76892281 324.44493294 C596.24951267 320.87112143 594.15326395 318.57963977 591.41825199 315.84537315 C590.49875356 314.92127592 589.57925512 313.99717869 588.6318931 313.04507852 C587.60490064 312.0231012 586.57781485 311.00121766 585.55064583 309.9794178 C584.46438403 308.89156818 583.37856024 307.80328105 582.29313809 306.71459365 C579.30546767 303.720499 576.31157529 300.73269381 573.31664431 297.74586415 C570.08944546 294.5252341 566.86800406 291.29885426 563.64584541 288.07318306 C557.33194652 281.75423832 551.01271278 275.44065458 544.69166952 269.12885746 C537.33743428 261.78499439 529.98841698 254.43591907 522.6396097 247.08662507 C509.53293577 233.97945033 496.42143362 220.877116 483.30725288 207.77745247 C470.56794513 195.05223974 457.83215252 182.32352259 445.10022163 169.59092903 C443.92348815 168.41413562 443.92348815 168.41413562 442.72298228 167.2135686 C441.93987825 166.43042421 441.15677422 165.64727983 440.34993976 164.8404038 C425.8723598 150.3621349 411.39149616 135.88715425 396.90909288 121.41371013 C391.77865607 116.28629568 386.6492019 111.15789941 381.52005005 106.0291996 C375.275661 99.78549102 369.02939525 93.54366686 362.7807427 87.30422506 C359.58956012 84.11767515 356.39918611 80.93032658 353.21094513 77.74083328 C350.29747107 74.82627028 347.38172623 71.91400003 344.46407855 69.00361523 C343.40403503 67.94539633 342.34484861 66.88631807 341.28656738 65.82633677 C339.85791772 64.39564487 338.42593971 62.96827879 336.99375248 61.54112816 C336.19628477 60.74436487 335.39881706 59.94760159 334.57718366 59.12669396 C331.41278833 56.18366906 330.86701618 58.2293723 328.13264412 60.95213032 Z M158.07041168 230.8973484 C157.38644129 231.58316238 156.70247089 232.26897636 155.99777412 232.97557259 C155.21250847 233.75808891 154.42724281 234.54060524 153.61818123 235.34683418 C152.7557531 236.21645287 151.89332497 237.08607155 151.00476265 237.98204231 C150.09738853 238.88912437 149.19001442 239.79620644 148.25514412 240.73077583 C145.76117377 243.22417057 143.27343302 245.7236994 140.78672934 248.22433853 C138.18911206 250.83442839 135.58585875 253.43888422 132.98318672 256.04393196 C128.05287768 260.98046601 123.1276905 265.92207778 118.20430338 270.86551428 C112.60007614 276.49206882 106.99019278 282.11296932 101.37981677 287.73339176 C89.8365272 299.29760644 78.30039517 310.86893423 66.76892281 322.44493294 C68.19986126 325.7085627 69.94763146 327.87108316 72.46414375 330.38066292 C73.61679977 331.53744293 73.61679977 331.53744293 74.79274178 332.71759224 C75.63646843 333.55412834 76.48019508 334.39066444 77.34948921 335.25255013 C78.23735619 336.14070915 79.12522316 337.02886818 80.03999519 337.94394112 C82.47129172 340.37581113 84.90870245 342.80146815 87.34725809 345.2260561 C89.89596084 347.76225085 92.4389957 350.30411579 94.98263741 352.8453846 C99.79868564 357.65521828 104.61980913 362.45993125 109.44277704 367.26282525 C114.93396739 372.73165588 120.41947542 378.20617101 125.9045136 383.68117094 C137.18633935 394.94209524 148.47527948 406.19585983 159.76892281 417.44493294 C163.03255257 416.01399448 165.19507303 414.26622429 167.70465279 411.74971199 C168.47583946 410.98127464 169.24702614 410.2128373 170.04158211 409.42111397 C170.87811821 408.57738731 171.71465431 407.73366066 172.57653999 406.86436653 C173.46469902 405.97649956 174.35285805 405.08863258 175.26793098 404.17386055 C177.699801 401.74256402 180.12545802 399.3051533 182.55004597 396.86659765 C185.08624072 394.31789491 187.62810566 391.77486004 190.16937447 389.23121834 C194.97920815 384.4151701 199.78392112 379.59404661 204.58681512 374.77107871 C210.05564575 369.27988835 215.53016088 363.79438033 221.00516081 358.30934215 C232.26608511 347.02751639 243.5198497 335.73857627 254.76892281 324.44493294 C253.33909295 321.18739454 251.59465828 319.01953748 249.08716011 316.50920296 C248.32161308 315.73801628 247.55606606 314.96682961 246.76732063 314.17227364 C245.92673607 313.33573753 245.0861515 312.49920143 244.22009468 311.63731575 C243.33544029 310.74915672 242.4507859 309.8609977 241.53932381 308.94592476 C239.11544175 306.51475074 236.68714622 304.08816072 234.25645065 301.66380978 C231.71460319 299.12702669 229.17763993 296.58536667 226.63989449 294.04448128 C222.37969259 289.78064235 218.11529402 285.52103478 213.84851265 281.26378059 C208.91073957 276.33690551 203.9802317 271.40284781 199.0534091 266.46502423 C194.82519989 262.22775131 190.59312096 257.99437302 186.35775805 253.76425052 C183.82711862 251.23673405 181.29786167 248.70787399 178.77208138 246.17550087 C175.95966904 243.35626051 173.13916317 240.54520696 170.31775093 237.734972 C169.05687408 236.46802246 169.05687408 236.46802246 167.77052498 235.17547798 C167.00497795 234.4155706 166.23943092 233.65566322 165.4506855 232.87272835 C164.78406143 232.20685833 164.11743736 231.54098831 163.43061256 230.85494041 C161.11739939 228.89209034 160.37181652 228.92939191 158.07041168 230.8973484 Z " fill="#000000" transform="translate(379.23107719421387,216.55506706237793)"/>
<path d="M0 0 C0.74711996 -0.06762245 1.49423991 -0.1352449 2.26399986 -0.20491652 C17.4786049 -1.30156784 30.30822203 -0.5330826 42.45606303 9.36885762 C48.70075369 14.80383161 54.51169352 20.64936988 60.25809669 26.60207129 C63.8812217 30.3123438 67.61352489 33.91021334 71.3318615 37.52459908 C78.57229555 44.59721355 85.70761047 51.76732191 92.80892281 58.97934075 C98.58831989 64.84503007 104.40432081 70.67199775 110.2475605 76.47407341 C111.08334634 77.30403639 111.91913218 78.13399938 112.78024486 78.98911276 C114.47899373 80.67571042 116.17782676 82.36222331 117.87674297 84.0486524 C133.75410631 99.81799732 149.51351035 115.7010995 165.23415257 131.62647592 C178.68742679 145.24950586 192.23723204 158.76981213 205.86291313 172.22032356 C221.73651379 187.88994669 237.54584477 203.6201693 253.25956452 219.45024097 C254.93949488 221.1422745 256.61950405 222.83422979 258.29959297 224.52610588 C259.12590885 225.35828423 259.95222473 226.19046258 260.80358049 227.04785845 C266.59392515 232.87083216 272.42680558 238.64891589 278.27819252 244.41048241 C285.4220345 251.44704281 292.49278005 258.54872532 299.48202543 265.73898359 C303.04220398 269.39817811 306.62447267 273.0220647 310.29774094 276.56803131 C324.38029839 290.20656151 336.28679725 302.97247287 336.63250542 323.54258919 C336.28679725 344.11270551 324.38029839 356.87861687 310.29774094 370.51714706 C309.59611281 371.1944594 308.89448468 371.87177174 308.1715951 372.56960869 C304.46132258 376.1927337 300.86345304 379.92503688 297.24906731 383.64337349 C290.17645283 390.88380754 283.00634447 398.01912246 275.79432563 405.12043481 C269.92863632 410.89983189 264.10166863 416.7158328 258.29959297 422.55907249 C257.05464849 423.81275125 257.05464849 423.81275125 255.78455362 425.09175686 C254.09795596 426.79050572 252.41144307 428.48933875 250.72501399 430.18825497 C234.95566906 446.0656183 219.07256688 461.82502235 203.14719047 477.54566456 C189.52416052 490.99893878 176.00385425 504.54874403 162.55334282 518.17442513 C146.88371969 534.04802578 131.15349708 549.85735677 115.32342541 565.57107651 C113.63139188 567.25100688 111.93943659 568.93101604 110.2475605 570.61110497 C108.99929298 571.85057878 108.99929298 571.85057878 107.72580793 573.11509248 C101.90283422 578.90543714 96.12475049 584.73831758 90.36318398 590.58970451 C83.32662357 597.73354649 76.22494107 604.80429205 69.0346828 611.79353742 C65.37548827 615.35371597 61.75160168 618.93598466 58.20563507 622.60925293 C44.77140186 636.48364337 33.07369676 647.7048707 12.87424067 648.14405271 C-0.6958958 648.0089592 -12.35160827 645.82524778 -22.20646858 635.85522652 C-23.51550077 634.41502769 -24.82255348 632.97302764 -26.12780952 631.52940559 C-27.63262264 630.01711498 -29.14591443 628.51322292 -30.6667347 627.01703072 C-34.70647159 622.99645022 -38.61950271 618.87124175 -42.51704359 614.71330118 C-46.63421214 610.36317522 -50.86125833 606.12232655 -55.07657051 601.86763191 C-63.01344864 593.82370671 -70.84784893 585.6873433 -78.64918339 577.51213586 C-87.54394368 568.20186857 -96.55544369 559.00813842 -105.57513595 549.81912541 C-118.84447466 536.29312827 -132.07177653 522.72609669 -145.18465042 509.0482254 C-146.60209203 507.57038728 -148.02115124 506.09409878 -149.44189835 504.61943817 C-151.37175383 502.6149598 -153.29498839 500.60436984 -155.21615791 498.5915699 C-155.78555245 498.00208049 -156.35494699 497.41259109 -156.94159591 496.80523837 C-160.76892281 492.77196966 -160.76892281 492.77196966 -160.76892281 490.54258919 C-159.52868843 489.32359505 -159.52868843 489.32359505 -157.67517281 487.81993294 C-150.82004961 481.99096245 -144.60559986 475.48417077 -138.26892281 469.10508919 C-136.95665695 467.7877986 -135.64415886 466.47073932 -134.33142281 465.15391731 C-131.14123774 461.95280309 -127.9542163 458.74857054 -124.76892281 455.54258919 C-120.86005911 457.13086362 -118.22909957 459.80781386 -115.31463814 462.75636482 C-114.77627508 463.29301903 -114.23791202 463.82967324 -113.68323493 464.3825897 C-111.88051305 466.18201736 -110.08503246 467.98850005 -108.28943062 469.79503059 C-106.99864622 471.08637912 -105.70742129 472.37728745 -104.41578865 473.66778755 C-100.90957852 477.17342324 -97.40957441 480.68519669 -93.91063595 484.19808817 C-90.25334369 487.86787233 -86.59039709 491.53200367 -82.92804146 495.19673347 C-75.99325546 502.13773876 -69.06358402 509.08382713 -62.13572669 516.03174722 C-54.24855402 523.94126489 -46.35571006 531.84511277 -38.46237993 539.74848485 C-22.22490038 556.00687658 -5.99457108 572.27239061 10.23107719 588.54258919 C16.46920686 583.38803618 22.15798589 577.75334528 27.86753654 572.02638435 C28.93756325 570.95679422 30.0078099 569.88742409 31.07825619 568.81825387 C34.00629384 565.89244412 36.93121793 562.96353921 39.85562789 560.03410411 C43.01459211 556.87081103 46.17645652 553.71041914 49.33796501 550.54966927 C54.81085797 545.0773 60.28192077 539.60310656 65.75173569 534.12766075 C73.66011908 526.2111414 81.5712708 518.29739326 89.4830953 510.38431315 C102.32023636 497.54498487 115.15514386 484.70342621 127.98864555 471.86046028 C140.45329244 459.38663076 152.91899187 446.91385466 165.38610649 434.44249153 C166.15491229 433.67342301 166.92371808 432.9043545 167.71582102 432.11198087 C171.57279975 428.25369708 175.42979916 424.39543397 179.28680885 420.53718114 C211.27143882 388.54218881 243.25244356 356.54357472 275.23107719 324.54258919 C273.713425 320.97480551 271.62487416 318.68768147 268.89323044 315.95864677 C267.9765987 315.03803294 267.05996696 314.1174191 266.11555851 313.16890788 C265.0918063 312.15086174 264.06796179 311.13290842 263.04403496 310.11503792 C261.9611838 309.03131484 260.87877216 307.94715245 259.79676354 306.86258817 C256.81855585 303.87990038 253.83413423 300.90349815 250.84868264 297.92806339 C247.6317151 294.71971849 244.42051469 291.50561062 241.20861626 288.29219246 C235.6417718 282.7242984 230.07127201 277.16008308 224.49828529 271.59833717 C216.44065015 263.55694387 208.38853169 255.51004523 200.33775665 247.46178451 C187.27631975 234.40472678 174.21042111 221.35214328 161.14172173 208.30235481 C148.44537104 195.62435718 135.75111891 182.94426437 123.05969048 170.26133919 C121.88658938 169.08902627 121.88658938 169.08902627 120.68978928 167.89303026 C116.7664695 163.97232052 112.84319103 160.05156947 108.91993308 156.13079786 C76.36338162 123.59498582 43.79959089 91.06642667 11.23107719 58.54258919 C6.83400329 62.23158365 2.62762004 66.0217683 -1.43211555 70.08552742 C-1.95670768 70.60926512 -2.4812998 71.13300282 -3.02178866 71.67261136 C-4.7575046 73.40669626 -6.48965107 75.14430095 -8.22180367 76.88194466 C-9.47383683 78.13426023 -10.72609091 79.38635498 -11.97854805 80.63824654 C-15.36249933 84.02191195 -18.74336742 87.40864268 -22.12367511 90.79594755 C-25.66260844 94.34114954 -29.20439059 97.88350315 -32.74586678 101.42616463 C-39.4448018 108.12820263 -46.14118449 114.83278476 -52.83664566 121.538293 C-60.46225114 129.17509174 -68.09071024 136.80903726 -75.71940601 144.44274879 C-91.40574733 160.13953109 -107.08851577 175.83987892 -122.76892281 191.54258919 C-125.83015491 190.0773318 -127.94551661 188.61094617 -130.34411812 186.19444466 C-131.02452156 185.51389015 -131.704925 184.83333565 -132.40594673 184.13215828 C-133.49054176 183.03207939 -133.49054176 183.03207939 -134.59704781 181.90977669 C-135.34605354 181.15794106 -136.09505928 180.40610542 -136.86676216 179.63148689 C-139.25555301 177.23151018 -141.63729178 174.8246691 -144.01892281 172.41758919 C-145.6382545 170.78822567 -147.25804082 169.15931384 -148.87829781 167.53087044 C-152.84712785 163.54000113 -156.81019179 159.54347504 -160.76892281 155.54258919 C-158.36827494 151.85841117 -156.25889788 148.81171756 -152.83142281 146.04258919 C-150.34049422 143.95075966 -148.36920277 142.06292514 -146.26892281 139.54258919 C-143.63859265 136.386193 -140.7937102 133.91442324 -137.67517281 131.26133919 C-135.55939996 129.4353839 -135.55939996 129.4353839 -133.26892281 126.54258919 C-130.63859265 123.386193 -127.7937102 120.91442324 -124.67517281 118.26133919 C-122.55939996 116.4353839 -122.55939996 116.4353839 -120.26892281 113.54258919 C-117.63859265 110.386193 -114.7937102 107.91442324 -111.67517281 105.26133919 C-109.55939996 103.4353839 -109.55939996 103.4353839 -107.26892281 100.54258919 C-104.63859265 97.386193 -101.7937102 94.91442324 -98.67517281 92.26133919 C-96.55939996 90.4353839 -96.55939996 90.4353839 -94.26892281 87.54258919 C-91.63859265 84.386193 -88.7937102 81.91442324 -85.67517281 79.26133919 C-83.55939996 77.4353839 -83.55939996 77.4353839 -81.26892281 74.54258919 C-78.63349739 71.38007869 -75.79532744 68.85712897 -72.67517281 66.19102669 C-70.24579627 64.09021337 -68.01147005 61.84120011 -65.76892281 59.54258919 C-64.43695489 58.20789183 -63.1035005 56.874677 -61.76892281 55.54258919 C-61.07798531 54.85165169 -60.38704781 54.16071419 -59.67517281 53.44883919 C-44.37308947 38.14675585 -29.07100614 22.84467252 -13.76892281 7.54258919 C-13.34939136 7.05082255 -12.92985992 6.55905591 -12.4976154 6.05238724 C-8.79680372 1.89880139 -5.5782486 0.44490063 0 0 Z " fill="#848484" transform="translate(700.7689228057861,216.45741081237793)"/>
<path d="M0 0 C3.4764575 0.31598326 5.17713211 1.80971194 7.57519531 4.23461914 C8.59580048 5.25556419 8.59580048 5.25556419 9.63702393 6.2971344 C10.36008728 7.03568161 11.08315063 7.77422882 11.828125 8.53515625 C12.95163361 9.66503212 12.95163361 9.66503212 14.09783936 10.81773376 C16.48902044 13.22571044 18.86956165 15.64390745 21.25 18.0625 C22.86910177 19.69664738 24.48888532 21.33011955 26.109375 22.96289062 C30.08086182 26.96745846 34.0436621 30.98046807 38 35 C36.05672055 38.45768729 34.02817827 41.22015695 31.2224884 44.01802063 C30.46109055 44.78216782 29.69969269 45.546315 28.91522217 46.33361816 C28.08444153 47.15720825 27.25366089 47.98079834 26.39770508 48.8293457 C25.51944565 49.70789719 24.64118622 50.58644867 23.73631287 51.49162292 C21.33518973 53.8915938 18.92972382 56.28704861 16.52219987 58.68058801 C14.00419032 61.18607113 11.49186628 63.69724223 8.97892761 66.20780945 C4.22312236 70.95740555 -0.53775682 75.70188156 -5.30049068 80.44452876 C-10.72399925 85.84566075 -16.14181079 91.25249202 -21.55915678 96.65980399 C-32.69978793 107.77954595 -43.84753398 118.892127 -55 130 C-53.57653076 133.24154762 -51.85466009 135.38923442 -49.34947205 137.87757874 C-48.59089401 138.63601578 -47.83231598 139.39445282 -47.05075073 140.1758728 C-46.21794586 140.99834503 -45.38514099 141.82081726 -44.52709961 142.66821289 C-43.6505925 143.54179947 -42.77408539 144.41538605 -41.87101746 145.31544495 C-39.96667423 147.21217496 -38.0606299 149.10699308 -36.15147209 150.9988575 C-33.13371458 153.98955546 -30.12361351 156.9878803 -27.11463928 159.9874115 C-20.72815289 166.35170729 -14.3332551 172.70752085 -7.9375 179.0625 C-1.02936922 185.92660548 5.87731087 192.79213277 12.77428621 199.66744989 C15.76681133 202.6499999 18.7641483 205.62760295 21.76523411 208.60153782 C24.06623941 210.88415107 26.36083833 213.17319031 28.65649414 215.46118164 C29.49132324 216.2856781 30.32615234 217.11017456 31.1862793 217.95965576 C31.94203751 218.71527298 32.69779572 219.4708902 33.47645569 220.24940491 C34.13662721 220.9051352 34.79679873 221.5608655 35.47697544 222.23646641 C37 224 37 224 38 227 C33.10623699 232.02024277 28.19320666 237.02101124 23.26611328 242.00854492 C21.59133068 243.70851589 19.92105716 245.41294116 18.25537109 247.12182617 C15.86418411 249.57346851 13.45738688 252.00878117 11.046875 254.44140625 C10.30193787 255.21214981 9.55700073 255.98289337 8.78948975 256.7769928 C8.08906555 257.47779465 7.38864136 258.1785965 6.66699219 258.90063477 C6.05410339 259.52462662 5.4412146 260.14861847 4.80975342 260.79151917 C3 262 3 262 1.18032837 261.83043861 C-1.73535827 260.71991838 -3.42428546 259.06235685 -5.69500732 256.92146301 C-6.63447708 256.04103333 -7.57394684 255.16060364 -8.54188538 254.25349426 C-9.5760597 253.26931137 -10.60993958 252.28481901 -11.64355469 251.30004883 C-12.73737589 250.2676029 -13.83155716 249.23553834 -14.92607117 248.2038269 C-24.95873307 238.72259629 -34.86814154 229.11069589 -44.74633408 219.46892262 C-52.03198735 212.36135116 -59.37173565 205.321517 -66.79672503 198.35957891 C-72.03194184 193.43995245 -77.18986914 188.44671042 -82.30002332 183.39735049 C-85.34395163 180.39389348 -88.40994685 177.43024216 -91.56551361 174.54392433 C-103.42426996 163.65593244 -112.85307348 154.20224656 -113.84646344 137.44875044 C-114.5255305 114.0897204 -114.5255305 114.0897204 -109.01727295 107.51960754 C-108.02157288 106.68813705 -107.0258728 105.85666656 -106 105 C-105.28714844 104.33871094 -104.57429688 103.67742187 -103.83984375 102.99609375 C-103.21207031 102.48175781 -102.58429688 101.96742188 -101.9375 101.4375 C-99.49778977 99.36674406 -97.56681856 97.48018227 -95.5 95 C-92.86966984 91.84360381 -90.02478739 89.37183405 -86.90625 86.71875 C-84.79047716 84.89279471 -84.79047716 84.89279471 -82.5 82 C-79.86966984 78.84360381 -77.02478739 76.37183405 -73.90625 73.71875 C-71.79047716 71.89279471 -71.79047716 71.89279471 -69.5 69 C-66.86966984 65.84360381 -64.02478739 63.37183405 -60.90625 60.71875 C-58.79047716 58.89279471 -58.79047716 58.89279471 -56.5 56 C-53.86966984 52.84360381 -51.02478739 50.37183405 -47.90625 47.71875 C-45.79047716 45.89279471 -45.79047716 45.89279471 -43.5 43 C-40.86966984 39.84360381 -38.02478739 37.37183405 -34.90625 34.71875 C-32.79047716 32.89279471 -32.79047716 32.89279471 -30.5 30 C-27.86966984 26.84360381 -25.02478739 24.37183405 -21.90625 21.71875 C-19.79047716 19.89279471 -19.79047716 19.89279471 -17.5 17 C-14.8714347 13.84572164 -12.04421065 11.32803436 -8.9296875 8.671875 C-6.48953602 6.55773566 -4.24902135 4.31516904 -2 2 C-1.34 1.34 -0.68 0.68 0 0 Z " fill="#858585" transform="translate(502,409)"/>
</svg>
